<?xml version="1.0" encoding="utf-8"?>
<!-- Generator: Adobe Illustrator 18.0.0, SVG Export Plug-In . SVG Version: 6.00 Build 0)  -->
<!DOCTYPE svg PUBLIC "-//W3C//DTD SVG 1.1//EN" "http://www.w3.org/Graphics/SVG/1.1/DTD/svg11.dtd">
<svg version="1.1" id="Logo" xmlns="http://www.w3.org/2000/svg" xmlns:xlink="http://www.w3.org/1999/xlink" x="0px" y="0px"
	 viewBox="0 0 147.3 30.2" enable-background="new 0 0 147.3 30.2" xml:space="preserve">
<g>
	<g>
		<linearGradient id="SVGID_1_" gradientUnits="userSpaceOnUse" x1="0" y1="15.1139" x2="59.7685" y2="15.1139">
			<stop  offset="0" style="stop-color:#E50054"/>
			<stop  offset="0.4973" style="stop-color:#EB5F00"/>
			<stop  offset="0.9964" style="stop-color:#F9B000"/>
		</linearGradient>
		<path fill="url(#SVGID_1_)" d="M47.7,15.1c0,1.6-1.3,2.9-2.9,2.9c-1.6,0-2.9-1.3-2.9-2.9s1.3-2.9,2.9-2.9
			C46.4,12.3,47.7,13.5,47.7,15.1z M59.8,15.2L59.8,15.2v0.1v14.9L52.7,28c-2.3,1.4-5,2.2-7.8,2.2c-8.3,0-14.9-6.7-14.9-14.9V15
			c0,3.9-2.8,7.1-6.5,7.7v-7.1c0-4.6-3.8-8.4-8.4-8.4c-4.6,0-8.4,3.8-8.4,8.4v14.6H0V14.9C0,6.7,6.7,0,14.9,0
			c8.3,0,14.9,6.7,14.9,14.9c0-8.3,6.8-15.1,15.2-14.9C53.3,0.1,59.7,7,59.8,15.2L59.8,15.2z M52.7,15.2c0-4.3-3.4-7.9-7.7-8
			c-4.4-0.1-8,3.5-8,7.8v0.2c0,4.3,3.5,7.8,7.8,7.8C49.1,23,52.7,19.5,52.7,15.2L52.7,15.2z"/>
	</g>
	<g>
		<linearGradient id="SVGID_2_" gradientUnits="userSpaceOnUse" x1="23.3568" y1="14.9956" x2="45.0818" y2="14.9956">
			<stop  offset="0" style="stop-color:#0095DB"/>
			<stop  offset="1" style="stop-color:#0054A4"/>
		</linearGradient>
		<path fill="url(#SVGID_2_)" d="M45.1,0v7.2c0,0-0.1,0-0.1,0c-4.4-0.1-8,3.5-8,7.8v0.1c0,7.8-6,14.2-13.6,14.9v-7.3
			c3.7-0.6,6.5-3.8,6.5-7.7v-0.1C29.9,6.6,36.7-0.1,45.1,0z"/>
	</g>
</g>
<g>
	<path fill="#FFFFFF" d="M76.7,2h1.5v11l-6.9-6.9V13h-1.5V2l6.9,7.1V2z M87.4,9.1c0,0.3,0,0.5-0.1,0.7h-0.2h-1.3h-4.7
		c0.3,1.1,1.2,1.8,2.3,1.8c0.5,0,1-0.1,1.3-0.4h1.9c-0.7,1.1-1.9,1.8-3.3,1.8c-2.1,0-3.8-1.7-3.8-3.9c0-2.2,1.7-4,3.8-4
		C85.7,5.1,87.4,6.9,87.4,9.1z M85.9,8.4c-0.3-1-1.2-1.8-2.4-1.8c-1.1,0-2,0.8-2.3,1.8H85.9z M91.2,10.9l-1.9-5.8h-1.5l2.7,7.9h1.3
		l2.7-7.9h-1.5L91.2,10.9z M102.7,9.1c0,0.3,0,0.5-0.1,0.7h-0.2h-1.3h-4.7c0.3,1.1,1.2,1.8,2.3,1.8c0.5,0,1-0.1,1.3-0.4h1.9
		c-0.7,1.1-1.9,1.8-3.3,1.8c-2.1,0-3.8-1.7-3.8-3.9c0-2.2,1.7-4,3.8-4C101,5.1,102.7,6.9,102.7,9.1z M101.2,8.4
		c-0.3-1-1.2-1.8-2.4-1.8c-1.1,0-2,0.8-2.3,1.8H101.2z M104.2,5.1V13h1.3V9.1c0.1-1.3,1.1-2.5,2.4-2.5V5.2c-0.9,0-1.8,0.3-2.4,0.9
		L104.2,5.1z"/>
	<path fill="#FFFFFF" d="M113.2,6.6c-0.2,0-0.5,0-0.8-0.1c-0.9-0.1-1.5-0.6-1.5-1.4c0-0.9,0.7-1.6,1.5-1.6h0.2
		c0.9,0,1.5,0.4,2.1,1.1l0.7-1.3c-0.6-0.7-1.7-1.2-2.8-1.2h-0.2c-1.6,0-3,1.4-3,3s1.4,2.6,3,2.9c0.3,0,0.5,0,0.7,0.1
		c1.1,0.2,2,0.6,2,1.7c0,1.1-0.9,1.9-2,1.9h-0.4c-1.3-0.1-2.2-0.6-2.7-1.3l-0.6,1.1v0c0.7,0.9,1.9,1.6,3.3,1.6h0.4
		c1.8,0,3.3-1.4,3.3-3.2C116.5,7.9,115.1,6.8,113.2,6.6z M118,13h1.6V2L118,3V13z M128.8,9.1c0,0.3,0,0.5-0.1,0.7h-0.2h-1.3h-4.7
		c0.3,1.1,1.2,1.8,2.3,1.8c0.5,0,1-0.1,1.3-0.4h1.9c-0.7,1.1-1.9,1.8-3.3,1.8c-2.1,0-3.8-1.7-3.8-3.9c0-2.2,1.7-4,3.8-4
		C127.1,5.1,128.8,6.9,128.8,9.1z M127.3,8.4c-0.3-1-1.2-1.8-2.4-1.8s-2,0.8-2.3,1.8H127.3z M138,9.1c0,0.3,0,0.5-0.1,0.7h-0.2h-1.3
		h-4.7c0.3,1.1,1.2,1.8,2.3,1.8c0.5,0,1-0.1,1.3-0.4h1.9c-0.7,1.1-1.9,1.8-3.3,1.8c-2.1,0-3.8-1.7-3.8-3.9c0-2.2,1.7-4,3.8-4
		C136.3,5.1,138,6.9,138,9.1z M136.5,8.4c-0.3-1-1.2-1.8-2.4-1.8s-2,0.8-2.3,1.8H136.5z M147.3,9.1c0,2.2-1.7,3.9-3.8,3.9
		c-0.9,0-1.8-0.3-2.4-0.9v4h-1.5v-11L141,6c0.7-0.6,1.5-0.9,2.4-0.9C145.5,5.2,147.3,6.9,147.3,9.1z M145.9,9.1
		c0-1.4-1.1-2.5-2.4-2.5c-1.3,0-2.3,1-2.4,2.2v0.6c0.2,1.2,1.2,2.2,2.4,2.2C144.8,11.6,145.9,10.5,145.9,9.1z"/>
	<path fill="#FFFFFF" d="M121.3,19.3h-1.5l-1.8,5.7l-1.9-5.7h-1.5l2.7,7.8c-0.3,1-1.2,1.7-2.3,1.7c0,0,0,0,0,0v1.4c0,0,0,0,0,0
		c0.9,0,1.7-0.3,2.3-0.8c0.7-0.5,1.2-1.3,1.4-2.3h0L121.3,19.3z M96.6,23.2c0,0.3,0,0.5-0.1,0.7h-0.2h-1.3h-4.7
		c0.3,1.1,1.2,1.8,2.3,1.8c0.5,0,1-0.1,1.3-0.4H96c-0.7,1.1-1.9,1.8-3.3,1.8c-2.1,0-3.8-1.7-3.8-3.9c0-2.2,1.7-4,3.8-4
		C94.9,19.3,96.6,21,96.6,23.2z M95.1,22.5c-0.3-1-1.2-1.8-2.4-1.8c-1.1,0-2,0.8-2.3,1.8H95.1z M101.9,19.3c-0.8,0-1.5,0.3-2.2,0.8
		l-1.6-0.8v7.9h1.6v-4.8c0.4-0.9,1.1-1.6,2.2-1.6c1.1,0,2,0.7,2.3,1.8v4v0.6h1.4v-4.2C105.4,20.9,103.8,19.3,101.9,19.3z M111,20.7
		c0.5,0,1.1,0.2,1.5,0.5l0.2,0.2l0.7-1.4l-0.2-0.1c-0.7-0.5-1.4-0.7-2.2-0.7c-2.2,0-3.9,1.7-3.9,3.9c0,2.2,1.7,3.9,3.9,3.9
		c0.8,0,1.6-0.3,2.2-0.7l0.2-0.1l-0.7-1.4l-0.2,0.2c-0.4,0.4-1,0.6-1.6,0.6c-1.4,0-2.5-1.1-2.5-2.5C108.5,21.9,109.6,20.7,111,20.7z
		 M75.3,16.2l4,10.9h-1.7L77,25.4h-4.9l-0.6,1.7h-1.7l4-10.9l0-0.1h0L75.3,16.2L75.3,16.2L75.3,16.2z M74.5,18.3l-2,5.7h3.9
		L74.5,18.3z M85.9,20.2l1.5-0.9v7c0,1.3-0.6,2.4-1.5,3.1c-0.7,0.5-1.5,0.8-2.3,0.8c0,0,0,0,0,0v-1.4c0,0,0,0,0,0
		c1.1,0,2.1-0.8,2.3-1.8v-0.6v-0.1c0,0,0,0-0.1,0c-0.6,0.5-1.4,0.9-2.3,0.9c-0.9,0-1.6-0.3-2.3-0.8c-0.4-0.3-0.8-0.7-1-1.2
		c-0.3-0.6-0.5-1.3-0.5-2c0-2.2,1.7-3.9,3.8-3.9C84.4,19.3,85.3,19.6,85.9,20.2z M85.9,22.9c-0.2-1.2-1.2-2.2-2.4-2.2
		c-1.4,0-2.4,1.1-2.4,2.5c0,0.3,0,0.5,0.1,0.8c0.2,0.5,0.4,0.9,0.8,1.2c0.4,0.3,0.9,0.5,1.5,0.5c0.6,0,1.1-0.2,1.5-0.6
		c0.4-0.3,0.6-0.7,0.8-1.2c0-0.1,0-0.3,0.1-0.4V22.9z"/>
</g>
</svg>
